# xmcd CD database file
#
# Track frame offsets:
#	150
#	14401
#	24085
#	37296
#	46144
#	60054
#	75280
#	89444
#	108285
#	123970
#	142819
#	162690
#
# Disc length: 2500 seconds
#
# Revision: 0
# Processed by: cddbd v1.5.2PL0 Copyright (c) Steve Scherf et al.
# Submitted via: Feurio! 1.67 - http://www.feurio.com
#
DISCID=8709c20c
DTITLE=Lousiana Red - Lousiana Red Sings The Blues
DYEAR=1972
DGENRE=Blues
TTITLE0=Rollin' Stone
TTITLE1=I Am Lousiana Red
TTITLE2=Country Playboy
TTITLE3=You Don't Have To Go
TTITLE4=Mean Old Frisco Blues
TTITLE5=The Story Of Lousiana Red
TTITLE6=Some Day
TTITLE7=The Same Thing
TTITLE8=Freight Train To Ride
TTITLE9=Where Is My Friend
TTITLE10=Red's New Dream
TTITLE11=Louisiana Blues
EXTD=
EXTT0=
EXTT1=
EXTT2=
EXTT3=
EXTT4=
EXTT5=
EXTT6=
EXTT7=
EXTT8=
EXTT9=
EXTT10=
EXTT11=
PLAYORDER=
